<?xml version="1.0" encoding="UTF-8" standalone="no"?>
<!DOCTYPE svg PUBLIC "-//W3C//DTD SVG 1.1//EN" "http://www.w3.org/Graphics/SVG/1.1/DTD/svg11.dtd">
<svg width="100%" height="100%" viewBox="0 0 5906 5906" version="1.1" xmlns="http://www.w3.org/2000/svg" xmlns:xlink="http://www.w3.org/1999/xlink" xml:space="preserve" xmlns:serif="http://www.serif.com/" style="fill-rule:evenodd;clip-rule:evenodd;stroke-linecap:round;stroke-linejoin:round;stroke-miterlimit:1.5;">
    <path d="M5578.49,3249.35C5756.04,3070.1 5754.66,2780.42 5575.4,2602.87L3272.36,321.719C3093.1,144.168 2803.42,145.552 2625.87,324.808L316.65,2656.2C139.099,2835.45 140.483,3125.13 319.739,3302.68L2622.78,5583.83C2802.04,5761.38 3091.72,5760 3269.27,5580.74L5578.49,3249.35ZM2061.78,3278.66L2873.74,4726.23C2850.09,4751.14 2835.57,4784.81 2835.57,4821.85C2835.57,4898.53 2897.82,4960.78 2974.5,4960.78C3051.18,4960.78 3113.43,4898.53 3113.43,4821.85C3113.43,4800.99 3108.83,4781.2 3100.57,4763.43L4336.55,3434.28C4405.04,3466.44 4481.45,3484.4 4562.02,3484.4C4855.44,3484.4 5093.67,3246.18 5093.67,2952.76C5093.67,2659.33 4855.44,2421.11 4562.02,2421.11C4435.44,2421.11 4319.13,2465.45 4227.8,2539.41L3091.53,1164.1C3108.55,1141.03 3118.62,1112.53 3118.62,1081.7C3118.62,1005.02 3056.36,942.769 2979.68,942.769C2903.01,942.769 2840.75,1005.02 2840.75,1081.7C2840.75,1118.44 2855.04,1151.86 2878.37,1176.73L2086.63,2647.61C2030.91,2593.08 1986,2553.31 1975.71,2553.31C1963.68,2553.31 1886.09,2626.78 1803.77,2710.84L1461.32,2268.52L1461.32,2049.14C1461.32,2031.53 1447.02,2017.23 1429.41,2017.23L1174.15,2017.23C1156.54,2017.23 1142.24,2031.53 1142.24,2049.14L1142.24,2304.4C1142.24,2322.01 1156.54,2336.3 1174.15,2336.3L1414.31,2336.3L1748.59,2768.06C1694.54,2824.95 1644.41,2880.31 1615.99,2915.77L838.362,2915.77L838.362,2831.62C838.362,2814.01 824.065,2799.71 806.454,2799.71L551.194,2799.71C533.584,2799.71 519.286,2814.01 519.286,2831.62L519.286,3086.88C519.286,3104.49 533.584,3118.79 551.194,3118.79L806.454,3118.79C824.065,3118.79 838.362,3104.49 838.362,3086.88L838.362,2994.44L1622.17,2994.44C1651.36,3028.89 1698.33,3080.23 1748.65,3133.31L1388.88,3568.24L1174.15,3568.24C1156.54,3568.24 1142.24,3582.53 1142.24,3600.14L1142.24,3855.4C1142.24,3873.01 1156.54,3887.31 1174.15,3887.31L1429.41,3887.31C1447.02,3887.31 1461.32,3873.01 1461.32,3855.4L1461.32,3604.08L1803.47,3190.46C1886.75,3276.23 1965.23,3352.24 1975.71,3352.24C1982.38,3352.24 2016.46,3322.25 2061.78,3278.66ZM2238.41,3098.94L2845.97,3537.3C2842.57,3549.33 2840.75,3562.02 2840.75,3575.13C2840.75,3651.81 2903.01,3714.06 2979.68,3714.06C3056.36,3714.06 3118.62,3651.81 3118.62,3575.13L3118.61,3574.64L4093.74,3204.51C4135,3281.05 4194.49,3346.35 4266.39,3394.58L3048.51,4704.27C3027.08,4690.75 3001.7,4682.91 2974.5,4682.91C2963.05,4682.91 2951.93,4684.3 2941.29,4686.92L2119.53,3221.87C2158.7,3182.62 2200.69,3139.26 2238.41,3098.94ZM2284.58,2855.22L2889.01,2433.65C2913.36,2454.65 2945.05,2467.35 2979.68,2467.35C3021.73,2467.35 3059.43,2448.63 3084.91,2419.09L4047.83,2817.26C4036.45,2860.5 4030.38,2905.93 4030.38,2952.76C4030.38,3016.05 4041.46,3076.77 4061.79,3133.07L3096.25,3499.56C3071.47,3461.43 3028.5,3436.2 2979.68,3436.2C2944.53,3436.2 2912.4,3449.29 2887.92,3470.86L2291.75,3040.72C2331.97,2995.65 2359.48,2961.39 2359.66,2952.78C2359.85,2943.95 2328.96,2905.28 2284.58,2855.22ZM2144.68,2705.74L2946.26,1216.58C2956.96,1219.23 2968.16,1220.63 2979.68,1220.63C2997.2,1220.63 3013.96,1217.38 3029.39,1211.46L4170.77,2592.95C4130.34,2636.89 4097.2,2687.64 4073.29,2743.31L3117.25,2347.98C3118.15,2341.59 3118.62,2335.06 3118.62,2328.42C3118.62,2251.74 3056.36,2189.49 2979.68,2189.49C2903.01,2189.49 2840.75,2251.74 2840.75,2328.42C2840.75,2342.07 2842.73,2355.27 2846.41,2367.74L2231.39,2796.69C2203.61,2766.76 2173.81,2735.49 2144.68,2705.74Z" style="fill:rgb(46,0,79);stroke:rgb(235,234,239);stroke-width:43.07px;"/>
</svg>
